<?xml version="1.0" encoding="UTF-8" standalone="no"?>
<!-- Created with Inkscape (http://www.inkscape.org/) -->

<svg
   width="59.565762mm"
   height="63.007607mm"
   viewBox="0 0 59.565762 63.007607"
   version="1.1"
   id="svg1"
   xml:space="preserve"
   xmlns="http://www.w3.org/2000/svg"
   xmlns:svg="http://www.w3.org/2000/svg"><defs
     id="defs1" /><g
     id="layer1"
     style="display:inline"
     transform="translate(-256.34895,-80.328642)"><g
       id="g116"
       style="display:inline;fill:#202a44;fill-opacity:1"
       transform="translate(117.3946,0.88011677)"><rect
         style="fill:#202a44;fill-opacity:1;stroke-width:0.0198217"
         id="rect62"
         width="0.96716869"
         height="5.1461525"
         x="121.1041"
         y="86.218903"
         transform="matrix(0.88161396,0.47197122,0.37332063,0.92770238,0,0)" /><rect
         style="fill:#202a44;fill-opacity:1;stroke-width:0.0476543"
         id="rect64"
         width="0.53498262"
         height="53.773365"
         x="-143.63361"
         y="139.67435"
         transform="matrix(-0.00847972,-0.99996405,0.99996478,-0.00839315,0,0)" /><rect
         style="fill:#202a44;fill-opacity:1;stroke-width:0.0826284"
         id="rect65"
         width="1.5149395"
         height="57.08984"
         x="137.02559"
         y="206.48236"
         transform="matrix(0.6537813,-0.75668356,0.40954589,0.91228952,0,0)" /><rect
         style="fill:#202a44;fill-opacity:1;stroke-width:0.0457329"
         id="rect66"
         width="1.0908457"
         height="24.288397"
         x="-106.03107"
         y="161.16115"
         transform="matrix(-0.13946521,-0.99022697,0.98613482,0.16594611,0,0)" /><rect
         style="fill:#202a44;fill-opacity:1;stroke-width:0.0477047"
         id="rect67"
         width="0.48568803"
         height="59.356422"
         x="-140.02524"
         y="148.12442"
         transform="matrix(0.06527125,-0.99786756,0.99985297,-0.01714736,0,0)" /><rect
         style="fill:#202a44;fill-opacity:1;stroke-width:0.324072"
         id="rect68"
         width="54.955566"
         height="3.7623439"
         x="140.51482"
         y="136.91689" /><rect
         style="fill:#202a44;fill-opacity:1;stroke-width:0.13935"
         id="rect69"
         width="1.6518172"
         height="0.65028173"
         x="146.35164"
         y="139.48067" /><rect
         style="fill:#202a44;fill-opacity:1;stroke-width:0.305447"
         id="rect70"
         width="48.819767"
         height="3.7623863"
         x="139.30188"
         y="139.96199"
         transform="matrix(0.99993979,-0.01097358,0.01274347,0.9999188,0,0)" /><rect
         style="fill:#202a44;fill-opacity:1;stroke-width:0.0210301"
         id="rect71"
         width="0.77970594"
         height="7.1853828"
         x="241.98975"
         y="43.025082"
         transform="matrix(0.91209712,0.40997419,-0.53294411,0.84615044,0,0)" /><rect
         style="fill:#202a44;fill-opacity:1;stroke-width:0.22005"
         id="rect72"
         width="34.373039"
         height="17.845234"
         x="153.86107"
         y="113.15549" /><rect
         style="fill:#202a44;fill-opacity:1;stroke-width:0.0999903"
         id="rect73"
         width="7.710906"
         height="16.425005"
         x="191.48582"
         y="-0.53317332"
         transform="rotate(34.788805)" /><rect
         style="fill:#202a44;fill-opacity:1;stroke-width:0.157925"
         id="rect74"
         width="17.688602"
         height="17.861017"
         x="188.36218"
         y="82.120102"
         transform="matrix(0.98561463,0.16900827,-0.1659808,0.98612898,0,0)" /><rect
         style="fill:#202a44;fill-opacity:1;stroke-width:0.029986"
         id="rect75"
         width="9.9848518"
         height="1.1407543"
         x="164.96707"
         y="123.32468"
         transform="matrix(0.99940143,0.03459446,-0.04016659,0.999193,0,0)" /><rect
         style="fill:#202a44;fill-opacity:1;stroke-width:0.104477"
         id="rect76"
         width="8.4276094"
         height="16.407249"
         x="108.38657"
         y="179.93297"
         transform="matrix(0.92357412,-0.38341994,0.44733941,0.89436427,0,0)" /><rect
         style="fill:#202a44;fill-opacity:1;stroke-width:0.0975727"
         id="rect77"
         width="14.525671"
         height="8.3025799"
         x="-14.729204"
         y="200.09595"
         transform="matrix(0.61197645,-0.79087598,0.864261,0.50304366,0,0)" /><rect
         style="fill:#202a44;fill-opacity:1;stroke-width:0.114255"
         id="rect78"
         width="7.5403032"
         height="21.930994"
         x="124.08382"
         y="176.2068"
         transform="matrix(0.84681273,-0.53189115,0.38191518,0.92419738,0,0)" /><rect
         style="fill:#202a44;fill-opacity:1;stroke-width:0.11081"
         id="rect79"
         width="8.6142111"
         height="18.056799"
         x="194.35832"
         y="15.83384"
         transform="matrix(0.90705599,0.42101002,-0.57024122,0.8214773,0,0)" /><rect
         style="display:inline;fill:#202a44;fill-opacity:1;stroke-width:0.0128406"
         id="rect80"
         width="1.478271"
         height="1.4129176"
         x="162.65718"
         y="112.0654" /><rect
         style="display:inline;fill:#202a44;fill-opacity:1;stroke-width:0.142914"
         id="rect81"
         width="15.282725"
         height="16.929451"
         x="176.39183"
         y="98.613731"
         transform="matrix(0.99998451,0.00556513,-0.11020123,0.9939093,0,0)" /><rect
         style="fill:#202a44;fill-opacity:1;stroke-width:0.0506966"
         id="rect82"
         width="6.6417818"
         height="4.9019408"
         x="124.33382"
         y="177.79413"
         transform="matrix(0.9609513,-0.27671755,0.3853356,0.92277651,0,0)" /><rect
         style="fill:#202a44;fill-opacity:1;stroke-width:0.0196933"
         id="rect83"
         width="2.6529973"
         height="1.8518199"
         x="185.46722"
         y="131.51834" /><rect
         style="fill:#202a44;fill-opacity:1;stroke-width:0.0300535"
         id="rect84"
         width="5.315877"
         height="2.1523499"
         x="191.58466"
         y="132.52011" /><rect
         style="fill:#202a44;fill-opacity:1;stroke-width:0.00434189"
         id="rect85"
         width="0.75912589"
         height="0.31458536"
         x="144.70433"
         y="108.47462"
         transform="matrix(0.9803918,0.19705817,-0.01660092,0.9998622,0,0)" /><rect
         style="fill:#202a44;fill-opacity:1;stroke-width:0.0136074"
         id="rect86"
         width="2.4762957"
         height="0.94720256"
         x="170.99571"
         y="-94.689217"
         transform="matrix(0.2893585,0.9572208,-0.96775165,0.25190624,0,0)" /><rect
         style="fill:#202a44;fill-opacity:1;stroke-width:0.06333"
         id="rect87"
         width="4.4369559"
         height="11.450686"
         x="191.43874"
         y="-24.070024"
         transform="matrix(0.83437335,0.5511997,-0.57233417,0.82002049,0,0)" /><rect
         style="fill:#202a44;fill-opacity:1;stroke-width:0.0103481"
         id="rect88"
         width="1.3137914"
         height="1.0324908"
         x="4.8353047"
         y="192.88271"
         transform="matrix(0.59537274,-0.80344963,0.8899709,0.45601733,0,0)" /><rect
         style="fill:#202a44;fill-opacity:1;stroke-width:0.31443"
         id="rect89"
         width="51.733902"
         height="3.7623439"
         x="143.04161"
         y="137.97203" /><rect
         style="fill:#202a44;fill-opacity:1;stroke-width:0.281946"
         id="rect90"
         width="41.596142"
         height="3.7624049"
         x="151.46864"
         y="139.59041"
         transform="matrix(0.99984552,-0.01757664,0.01942853,0.99981125,0,0)" /><rect
         style="fill:#202a44;fill-opacity:1;stroke-width:0.0774646"
         id="rect91"
         width="3.4782767"
         height="3.3964498"
         x="243.15282"
         y="107.6034"
         transform="matrix(0.9873851,0.15833718,-0.42687254,0.9043118,0,0)" /><rect
         style="fill:#202a44;fill-opacity:1;stroke-width:0.0215452"
         id="rect92"
         width="0.88863343"
         height="1.0284016"
         x="235.76778"
         y="96.514572"
         transform="matrix(0.98104714,0.1937692,-0.3578677,0.9337723,0,0)" /><rect
         style="fill:#202a44;fill-opacity:1;stroke-width:0.132826"
         id="rect93"
         width="0.18467635"
         height="0.23362337"
         x="217.18842"
         y="108.58667"
         transform="matrix(0.99138126,0.13100841,-0.15637739,0.98769738,0,0)" /><rect
         style="fill:#202a44;fill-opacity:1;stroke-width:0.0587707"
         id="rect94"
         width="1.7896971"
         height="3.7995169"
         x="77.805908"
         y="175.67543"
         transform="matrix(0.94453785,-0.32840258,0.37440401,0.92726568,0,0)" /><rect
         style="fill:#202a44;fill-opacity:1;stroke-width:0.0221135"
         id="rect95"
         width="1.8051829"
         height="0.53331107"
         x="143.33482"
         y="136.81595"
         transform="matrix(0.99999986,5.3850584e-4,-0.03113857,0.99951508,0,0)" /><rect
         style="fill:#202a44;fill-opacity:1;stroke-width:0.262054"
         id="rect96"
         width="0.43475053"
         height="0.38627848"
         x="222.27171"
         y="114.96484"
         transform="matrix(0.99586912,0.09080034,-0.22365579,0.97466819,0,0)" /><rect
         style="fill:#202a44;fill-opacity:1;stroke-width:0"
         id="rect97"
         width="34.100864"
         height="0.79999942"
         x="144.05678"
         y="124.96763"
         transform="matrix(0.99942266,0.03397579,-0.03393345,0.99942409,0,0)" /><rect
         style="fill:#202a44;fill-opacity:1;stroke-width:0"
         id="rect98"
         width="0.80000001"
         x="175.46733"
         y="79.80825"
         height="57.32478" /><rect
         style="fill:#202a44;fill-opacity:1;stroke-width:0"
         id="rect99"
         width="0.80000257"
         x="190.7505"
         y="-33.135696"
         height="59.101562"
         transform="matrix(0.82091284,0.57105351,-0.57190533,0.82031963,0,0)" /><rect
         style="fill:#202a44;fill-opacity:1;stroke-width:0"
         id="rect100"
         width="2.0168133"
         height="2.8207178"
         x="173.58118"
         y="84.748459" /><rect
         style="fill:#202a44;fill-opacity:1;stroke-width:0"
         id="rect109"
         width="7.2406635"
         height="6.628705"
         x="170.60538"
         y="90.861809"
         transform="matrix(0.99999971,-7.6382517e-4,0.00274127,0.99999624,0,0)" /><rect
         style="fill:#202a44;fill-opacity:1;stroke-width:0"
         id="rect110"
         width="2.0168133"
         height="2.8207178"
         x="175.04794"
         y="88.584633" /><rect
         style="fill:#202a44;fill-opacity:1;stroke-width:0"
         id="rect111"
         width="6.928781"
         height="7.4733186"
         x="-130.54395"
         y="146.56789"
         transform="matrix(-5.7446154e-4,-0.99999983,0.99999991,-4.2812446e-4,0,0)" /><rect
         style="fill:#202a44;fill-opacity:1;stroke-width:0"
         id="rect112"
         width="3.4325476"
         height="2.0254164"
         x="147.36073"
         y="122.22878" /><rect
         style="fill:#202a44;fill-opacity:1;stroke-width:0"
         id="rect113"
         width="1.9188221"
         height="5.5635357"
         x="146.43939"
         y="123.62849"
         transform="matrix(0.99997741,0.00672112,-0.00567183,0.99998392,0,0)" /><rect
         style="fill:#202a44;fill-opacity:1;stroke-width:0"
         id="rect114"
         width="1.6716897"
         height="5.1196704"
         x="191.77631"
         y="15.841593"
         transform="matrix(0.80867883,0.58825041,-0.59671206,0.80245543,0,0)" /><rect
         style="fill:#202a44;fill-opacity:1;stroke-width:0"
         id="rect115"
         width="2.0680568"
         height="1.9614558"
         x="144.16272"
         y="128.21974" /><circle
         style="fill:#202a44;fill-opacity:1;stroke-width:0"
         id="circle115"
         cx="139.73161"
         cy="130.18132"
         r="0.40630117" /><circle
         style="fill:#202a44;fill-opacity:1;stroke-width:0"
         id="circle116"
         cx="175.86565"
         cy="79.854828"
         r="0.40630117" /><rect
         style="fill:#202a44;fill-opacity:1;stroke-width:0"
         id="rect116"
         width="0.55656689"
         height="0.55656689"
         x="162.3007"
         y="112.04597" /></g></g></svg>
